<svg height="11" viewBox="0 0 14 11" width="14" xmlns="http://www.w3.org/2000/svg"><path d="m87.8774286 8.40742857c-.0248572-.02528571-.0557143-.03814286-.0848572-.05571428l-4.6495714-4.22957143c-.1637143-.16285715-.4285714-.16285715-.5922857 0-.1632857.16671428-.1632857.42814285 0 .59142857l3.927 3.57428571h-10.0491429c-.2365714 0-.4285714.19285715-.4285714.42857143 0 .23571429.192.42857143.4285714.42857143h10.0495715l-3.9274286 3.57c-.1632857.1624286-.1632857.4285714 0 .5914286.1637143.1624285.4285714.1624285.5922857 0l4.6495714-4.23000003c.0291429-.01714286.06-.03.0848572-.05614286.0831428-.081.123-.19242857.1217143-.29957142.0012857-.12-.0385715-.22757143-.1217143-.31328572z" fill="#fd385b" fill-rule="evenodd" stroke="#fd385b" stroke-width=".4" transform="translate(-75 -3)"/></svg>